<svg xmlns="http://www.w3.org/2000/svg" xmlns:xlink="http://www.w3.org/1999/xlink" width="1137" zoomAndPan="magnify" viewBox="181 538 1137 325" height="325" preserveAspectRatio="xMidYMid meet" version="1.0"><defs><g/></defs><g fill="#1e1e1e" fill-opacity="1"><g transform="translate(201.79699, 848.999907)"><g><path d="M 164.40625 -92.796875 L 222.796875 -92.796875 C 221.460938 -74.929688 215.863281 -58.597656 206 -43.796875 C 196.132812 -28.992188 183.398438 -17.257812 167.796875 -8.59375 C 152.203125 0.0703125 135.070312 4.40625 116.40625 4.40625 C 102 4.40625 88.460938 1.671875 75.796875 -3.796875 C 63.128906 -9.265625 51.992188 -16.863281 42.390625 -26.59375 C 32.796875 -36.332031 25.265625 -47.535156 19.796875 -60.203125 C 14.328125 -72.867188 11.59375 -86.398438 11.59375 -100.796875 C 11.59375 -120.265625 16.328125 -138 25.796875 -154 C 35.265625 -170 47.929688 -182.734375 63.796875 -192.203125 C 79.660156 -201.671875 97.195312 -206.40625 116.40625 -206.40625 C 132.9375 -206.40625 148.398438 -202.800781 162.796875 -195.59375 C 177.203125 -188.394531 189.335938 -178.796875 199.203125 -166.796875 L 154 -131.59375 C 148.9375 -138.257812 143.132812 -142.925781 136.59375 -145.59375 C 130.0625 -148.257812 123.332031 -149.59375 116.40625 -149.59375 C 103.332031 -149.59375 92.195312 -144.992188 83 -135.796875 C 73.800781 -126.597656 69.203125 -114.929688 69.203125 -100.796875 C 69.203125 -86.398438 73.800781 -74.664062 83 -65.59375 C 92.195312 -56.53125 103.332031 -52 116.40625 -52 C 128.9375 -52 139.597656 -55.734375 148.390625 -63.203125 C 157.191406 -70.671875 162.53125 -80.535156 164.40625 -92.796875 Z M 164.40625 -92.796875 "/></g></g></g><g fill="#1e1e1e" fill-opacity="1"><g transform="translate(415.795169, 848.999907)"><g><path d="M 223.59375 -100.796875 L 223.59375 0 L 167.203125 0 L 167.203125 -100.796875 C 167.203125 -117.066406 163.132812 -129.265625 155 -137.390625 C 146.863281 -145.523438 136.929688 -149.59375 125.203125 -149.59375 C 116.929688 -149.59375 109.0625 -147.523438 101.59375 -143.390625 C 94.132812 -139.265625 88.132812 -133.535156 83.59375 -126.203125 C 79.0625 -118.867188 76.796875 -110.398438 76.796875 -100.796875 L 76.796875 0 L 20 0 L 20 -298 L 76.796875 -298 L 76.796875 -187.59375 C 82.128906 -194.257812 90.0625 -199.0625 100.59375 -202 C 111.132812 -204.9375 120.9375 -206.40625 130 -206.40625 C 148.394531 -206.40625 164.660156 -201.671875 178.796875 -192.203125 C 192.929688 -182.734375 203.929688 -170 211.796875 -154 C 219.660156 -138 223.59375 -120.265625 223.59375 -100.796875 Z M 223.59375 -100.796875 "/></g></g></g><g fill="#1e1e1e" fill-opacity="1"><g transform="translate(636.593245, 848.999907)"><g><path d="M 48 -237.59375 C 39.195312 -237.59375 31.53125 -240.789062 25 -247.1875 C 18.46875 -253.59375 15.203125 -261.195312 15.203125 -270 C 15.203125 -278 18.46875 -285.195312 25 -291.59375 C 31.53125 -298 39.195312 -301.203125 48 -301.203125 C 57.601562 -301.203125 65.671875 -298.066406 72.203125 -291.796875 C 78.734375 -285.535156 82 -278.269531 82 -270 C 82 -261.195312 78.734375 -253.59375 72.203125 -247.1875 C 65.671875 -240.789062 57.601562 -237.59375 48 -237.59375 Z M 76.796875 -202 L 76.796875 0 L 20 0 L 20 -202 Z M 76.796875 -202 "/></g></g></g><g fill="#1e1e1e" fill-opacity="1"><g transform="translate(713.392524, 848.999907)"><g><path d="M 217.203125 -100.796875 L 217.203125 0 L 160.40625 0 L 160.40625 -100.796875 C 160.40625 -118.128906 156.335938 -130.59375 148.203125 -138.1875 C 140.066406 -145.789062 129.597656 -149.59375 116.796875 -149.59375 C 109.867188 -149.59375 103.335938 -147.394531 97.203125 -143 C 91.066406 -138.601562 86.128906 -132.738281 82.390625 -125.40625 C 78.660156 -118.070312 76.796875 -109.867188 76.796875 -100.796875 L 76.796875 0 L 20 0 L 20 -202 L 76.796875 -202 L 76.796875 -188 C 81.328125 -193.601562 88.523438 -198.070312 98.390625 -201.40625 C 108.265625 -204.738281 117.601562 -206.40625 126.40625 -206.40625 C 141.332031 -206.40625 154.992188 -203.40625 167.390625 -197.40625 C 179.796875 -191.40625 188.929688 -183.738281 194.796875 -174.40625 C 201.203125 -182.9375 208.671875 -189.535156 217.203125 -194.203125 C 225.734375 -198.867188 234.398438 -202.066406 243.203125 -203.796875 C 252.003906 -205.535156 259.867188 -206.40625 266.796875 -206.40625 C 287.597656 -206.40625 304.796875 -201.671875 318.390625 -192.203125 C 331.992188 -182.734375 342.128906 -170 348.796875 -154 C 355.460938 -138 358.796875 -120.265625 358.796875 -100.796875 L 358.796875 0 L 302.40625 0 L 302.40625 -100.796875 C 302.40625 -116.265625 298.335938 -128.265625 290.203125 -136.796875 C 282.066406 -145.328125 272.265625 -149.59375 260.796875 -149.59375 C 248.535156 -149.59375 238.203125 -144.789062 229.796875 -135.1875 C 221.398438 -125.59375 217.203125 -114.128906 217.203125 -100.796875 Z M 217.203125 -100.796875 "/></g></g></g><g fill="#1e1e1e" fill-opacity="1"><g transform="translate(1069.389534, 848.999907)"><g><path d="M 164.796875 -72.40625 L 210 -37.59375 C 201.46875 -24.800781 189.066406 -14.601562 172.796875 -7 C 156.535156 0.601562 139.335938 4.40625 121.203125 4.40625 C 106.003906 4.40625 91.800781 1.671875 78.59375 -3.796875 C 65.394531 -9.265625 53.726562 -16.863281 43.59375 -26.59375 C 33.46875 -36.332031 25.601562 -47.535156 20 -60.203125 C 14.394531 -72.867188 11.59375 -86.398438 11.59375 -100.796875 C 11.59375 -120.265625 16.328125 -138 25.796875 -154 C 35.265625 -170 47.929688 -182.734375 63.796875 -192.203125 C 79.660156 -201.671875 97.195312 -206.40625 116.40625 -206.40625 C 133.195312 -206.40625 148.394531 -203.070312 162 -196.40625 C 175.601562 -189.738281 187.203125 -181.003906 196.796875 -170.203125 C 206.398438 -159.398438 213.203125 -147.734375 217.203125 -135.203125 L 104.40625 -54.40625 C 107.070312 -53.332031 109.800781 -52.660156 112.59375 -52.390625 C 115.394531 -52.128906 118.265625 -52 121.203125 -52 C 129.734375 -52 138 -53.597656 146 -56.796875 C 154 -59.992188 160.265625 -65.195312 164.796875 -72.40625 Z M 69.203125 -100.796875 C 69.203125 -95.460938 69.734375 -91.0625 70.796875 -87.59375 L 144.40625 -140 C 140.40625 -142.9375 136.070312 -145.269531 131.40625 -147 C 126.738281 -148.726562 121.738281 -149.59375 116.40625 -149.59375 C 103.332031 -149.59375 92.195312 -144.992188 83 -135.796875 C 73.800781 -126.597656 69.203125 -114.929688 69.203125 -100.796875 Z M 69.203125 -100.796875 "/></g></g></g></svg>