<?xml version="1.0" encoding="UTF-8"?>
<svg xmlns="http://www.w3.org/2000/svg" width="1024" height="1024" viewBox="-39.594310500000006 -37.84 247.68 247.68" role="img" aria-label="koel">
<rect x="-39.594310500000006" y="-37.84" width="247.68" height="247.68" fill="#000000"/>
<g transform="translate(-10.000000,182.000000) scale(0.100000,-0.100000)"
fill="#1A1A1A" stroke="none">
<path d="M100 960 l0 -860 185 0 185 0 0 228 0 227 93 93 94 93 313 -320 314
-321 250 0 251 0 -435 435 -435 435 418 418 c229 229 417 420 417 425 0 4
-107 7 -237 7 l-238 0 -402 -402 -403 -403 0 403 0 402 -185 0 -185 0 0 -860z"/>
</g>
</svg>
