<?xml version="1.0" encoding="UTF-8"?>
<svg xmlns="http://www.w3.org/2000/svg" width="5010" height="5010" viewBox="-0.000 -1263.000 5009.600 5009.600" role="img" aria-label="koel">
<rect x="-0.000" y="-1263.000" width="5009.600" height="5009.600" fill="#000000"/>
<path fill="#262626" d="M484.79999999999995 1974.8V484.79999999999995H884.8V1262.8H888.8L1156.8 918.8H1608.8L1236.8 1382.8L1620.8 1974.8H1166.8L942.8 1609.8L884.8 1681.8V1974.8Z"/>
<path fill="#262626" d="M2222.8 1998.8Q2051.8 1998.8 1921.8000000000002 1931.3Q1791.8 1863.8 1719.3 1739.8Q1646.8 1615.8 1646.8 1446.8Q1646.8 1277.8 1719.3 1154.3Q1791.8 1030.8 1921.8000000000002 962.8Q2051.8 894.8 2222.8 894.8Q2394.8 894.8 2524.3 962.8Q2653.8 1030.8 2726.3 1154.3Q2798.8 1277.8 2798.8 1446.8Q2798.8 1615.8 2726.3 1739.8Q2653.8 1863.8 2524.3 1931.3Q2394.8 1998.8 2222.8 1998.8ZM2222.8 1686.8Q2293.8 1686.8 2344.3 1626.3Q2394.8 1565.8 2394.8 1446.8Q2394.8 1327.8 2344.3 1267.3Q2293.8 1206.8 2222.8 1206.8Q2151.8 1206.8 2101.3 1267.3Q2050.8 1327.8 2050.8 1446.8Q2050.8 1565.8 2101.3 1626.3Q2151.8 1686.8 2222.8 1686.8Z"/>
<path fill="#262626" d="M3451.8 1998.8Q3287.8 1998.8 3160.8 1928.3Q3033.8 1857.8 2962.3 1732.8Q2890.8 1607.8 2890.8 1446.8Q2890.8 1284.8 2961.8 1160.3Q3032.8 1035.8 3157.3 965.3Q3281.8 894.8 3443.8 894.8Q3605.8 894.8 3730.8 963.8Q3855.8 1032.8 3926.3 1154.8Q3996.8 1276.8 3996.8 1435.8V1542.8H3278.8Q3280.8 1626.8 3330.8 1673.8Q3380.8 1720.8 3467.8 1720.8Q3531.8 1720.8 3577.3 1696.8Q3622.8 1672.8 3638.8 1629.8H3992.8Q3973.8 1737.8 3897.8 1820.8Q3821.8 1903.8 3706.3 1951.3Q3590.8 1998.8 3451.8 1998.8ZM3281.8 1318.8H3627.8Q3617.8 1253.8 3572.8 1217.3Q3527.8 1180.8 3454.8 1180.8Q3381.8 1180.8 3336.8 1217.3Q3291.8 1253.8 3281.8 1318.8Z"/>
<path fill="#262626" d="M4524.8 484.79999999999995V1974.8H4124.8V484.79999999999995Z"/>
</svg>
