<svg xmlns="http://www.w3.org/2000/svg" xmlns:xlink="http://www.w3.org/1999/xlink" width="630" zoomAndPan="magnify" viewBox="435 473 630 633" height="633" preserveAspectRatio="xMidYMid meet" version="1.0"><defs><g/><clipPath id="9e8640aebc"><rect x="0" width="630" y="0" height="789"/></clipPath></defs><g transform="matrix(1, 0, 0, 1, 422, 484)"><g clip-path="url(#9e8640aebc)"><g fill="#1e1e1e" fill-opacity="1"><g transform="translate(0.499138, 593.895053)"><g><path d="M 502.640625 -254.421875 L 624.03125 -254.421875 C 619.90625 -217.296875 609.335938 -182.75 592.328125 -150.78125 C 575.316406 -118.820312 553.410156 -90.859375 526.609375 -66.890625 C 499.804688 -42.921875 469.390625 -24.101562 435.359375 -10.4375 C 401.335938 3.21875 365.253906 10.046875 327.109375 10.046875 C 285.859375 10.046875 247.316406 2.316406 211.484375 -13.140625 C 175.660156 -28.609375 144.21875 -50.003906 117.15625 -77.328125 C 90.09375 -104.648438 68.957031 -136.222656 53.75 -172.046875 C 38.539062 -207.878906 30.9375 -246.421875 30.9375 -287.671875 C 30.9375 -328.910156 38.539062 -367.570312 53.75 -403.65625 C 68.957031 -439.75 90.09375 -471.453125 117.15625 -498.765625 C 144.21875 -526.085938 175.660156 -547.476562 211.484375 -562.9375 C 247.316406 -578.40625 285.597656 -586.140625 326.328125 -586.140625 C 379.941406 -586.140625 429.300781 -573.382812 474.40625 -547.875 C 519.507812 -522.363281 554.953125 -488.46875 580.734375 -446.1875 L 487.171875 -379.6875 C 466.554688 -410.625 442.195312 -433.695312 414.09375 -448.90625 C 386 -464.113281 357.003906 -471.71875 327.109375 -471.71875 C 295.140625 -471.71875 266.007812 -463.46875 239.71875 -446.96875 C 213.425781 -430.46875 192.546875 -408.296875 177.078125 -380.453125 C 161.617188 -352.617188 153.890625 -321.691406 153.890625 -287.671875 C 153.890625 -254.160156 161.617188 -223.484375 177.078125 -195.640625 C 192.546875 -167.804688 213.425781 -145.769531 239.71875 -129.53125 C 266.007812 -113.289062 295.140625 -105.171875 327.109375 -105.171875 C 355.972656 -105.171875 382.648438 -111.613281 407.140625 -124.5 C 431.628906 -137.382812 452.378906 -155.039062 469.390625 -177.46875 C 486.398438 -199.894531 497.484375 -225.546875 502.640625 -254.421875 Z M 502.640625 -254.421875 "/></g></g></g></g></g></svg>