<svg xmlns="http://www.w3.org/2000/svg" width="1600" height="1600" viewBox="0.000 0.000 1600.000 1600.000" preserveAspectRatio="xMidYMid meet" role="img">
<g transform="translate(254.5259,1246.5894) scale(0.693106,-0.693106)"><path fill="#1e1e1e" d="M788 -20Q592 -20 437.5 71.0Q283 162 193.0 333.0Q103 504 103 744Q103 985 193.0 1156.5Q283 1328 437.5 1419.0Q592 1510 788 1510Q983 1510 1137.5 1419.0Q1292 1328 1381.5 1156.5Q1471 985 1471 744Q1471 542 1406.0 388.0Q1341 234 1229 137L1436 -129H1180L1055 30Q932 -20 788 -20ZM704 497H944L1069 335Q1132 401 1167.0 504.0Q1202 607 1202 744Q1202 1000 1086.0 1135.5Q970 1271 788 1271Q605 1271 488.0 1135.5Q371 1000 371 744Q371 490 488.0 354.5Q605 219 788 219Q849 219 903 235Z"/></g>
</svg>
