<svg xmlns="http://www.w3.org/2000/svg" xmlns:xlink="http://www.w3.org/1999/xlink" width="2000" zoomAndPan="magnify" viewBox="0 0 1500 1499.999933" height="2000" preserveAspectRatio="xMidYMid meet" version="1.0"><defs><g/><clipPath id="5520a48e9a"><rect x="0" width="630" y="0" height="788"/></clipPath></defs><g transform="matrix(1, 0, 0, 1, 421, 348)"><g clip-path="url(#5520a48e9a)"><g fill="#1e1e1e" fill-opacity="1"><g transform="translate(0.343698, 593.391549)"><g><path d="M 210.34375 111.359375 L 280.703125 5.40625 C 245.128906 -0.257812 212.132812 -11.726562 181.71875 -29 C 151.300781 -46.269531 124.878906 -68.050781 102.453125 -94.34375 C 80.035156 -120.632812 62.507812 -150.144531 49.875 -182.875 C 37.25 -215.613281 30.9375 -250.546875 30.9375 -287.671875 C 30.9375 -328.910156 38.664062 -367.570312 54.125 -403.65625 C 69.59375 -439.75 90.988281 -471.453125 118.3125 -498.765625 C 145.632812 -526.085938 177.207031 -547.476562 213.03125 -562.9375 C 248.863281 -578.40625 287.40625 -586.140625 328.65625 -586.140625 C 369.894531 -586.140625 408.554688 -578.40625 444.640625 -562.9375 C 480.734375 -547.476562 512.4375 -526.085938 539.75 -498.765625 C 567.070312 -471.453125 588.460938 -439.75 603.921875 -403.65625 C 619.390625 -367.570312 627.125 -328.910156 627.125 -287.671875 C 627.125 -241.785156 617.457031 -199.125 598.125 -159.6875 C 578.789062 -120.25 552.5 -86.609375 519.25 -58.765625 C 486.007812 -30.929688 447.992188 -11.34375 405.203125 0 L 564.484375 0 L 564.484375 111.359375 Z M 328.65625 -471.71875 C 296.175781 -471.71875 266.660156 -463.46875 240.109375 -446.96875 C 213.554688 -430.46875 192.546875 -408.296875 177.078125 -380.453125 C 161.617188 -352.617188 153.890625 -321.691406 153.890625 -287.671875 C 153.890625 -253.640625 161.617188 -222.832031 177.078125 -195.25 C 192.546875 -167.675781 213.554688 -145.769531 240.109375 -129.53125 C 266.660156 -113.289062 296.429688 -105.171875 329.421875 -105.171875 C 361.898438 -105.171875 391.414062 -113.289062 417.96875 -129.53125 C 444.519531 -145.769531 465.523438 -167.675781 480.984375 -195.25 C 496.453125 -222.832031 504.1875 -253.640625 504.1875 -287.671875 C 504.1875 -321.691406 496.320312 -352.617188 480.59375 -380.453125 C 464.875 -408.296875 443.738281 -430.46875 417.1875 -446.96875 C 390.644531 -463.46875 361.132812 -471.71875 328.65625 -471.71875 Z M 328.65625 -471.71875 "/></g></g></g></g></g></svg>