<svg xmlns="http://www.w3.org/2000/svg" xmlns:xlink="http://www.w3.org/1999/xlink" width="2000" zoomAndPan="magnify" viewBox="0 0 1500 1499.999933" height="2000" preserveAspectRatio="xMidYMid meet" version="1.0"><defs><g/></defs><g fill="#1e1e1e" fill-opacity="1"><g transform="translate(82.398517, 848.999907)"><g><path d="M 216.796875 96.40625 L 160 96.40625 L 160 -14.40625 C 154.664062 -8 147.460938 -3.257812 138.390625 -0.1875 C 129.328125 2.875 120.53125 4.40625 112 4.40625 C 93.601562 4.40625 76.800781 -0.394531 61.59375 -10 C 46.394531 -19.601562 34.257812 -32.40625 25.1875 -48.40625 C 16.125 -64.40625 11.59375 -82.132812 11.59375 -101.59375 C 11.59375 -120.800781 15.992188 -138.335938 24.796875 -154.203125 C 33.597656 -170.066406 45.53125 -182.734375 60.59375 -192.203125 C 75.664062 -201.671875 92.398438 -206.40625 110.796875 -206.40625 C 120.128906 -206.40625 129.59375 -204.535156 139.1875 -200.796875 C 148.789062 -197.066406 155.726562 -192.800781 160 -188 L 160 -202 L 216.796875 -202 Z M 116.40625 -149.59375 C 103.332031 -149.59375 92.195312 -145.0625 83 -136 C 73.800781 -126.9375 69.203125 -115.335938 69.203125 -101.203125 C 69.203125 -86.796875 73.800781 -74.992188 83 -65.796875 C 92.195312 -56.597656 103.332031 -52 116.40625 -52 C 129.738281 -52 140.738281 -56.597656 149.40625 -65.796875 C 158.070312 -74.992188 162.40625 -86.796875 162.40625 -101.203125 C 162.40625 -115.335938 158.070312 -126.9375 149.40625 -136 C 140.738281 -145.0625 129.738281 -149.59375 116.40625 -149.59375 Z M 116.40625 -149.59375 "/></g></g></g><g fill="#1e1e1e" fill-opacity="1"><g transform="translate(299.196656, 848.999907)"><g><path d="M 17.203125 -96.796875 L 17.203125 -202 L 74 -202 L 74 -101.59375 C 74 -86.925781 78.066406 -74.992188 86.203125 -65.796875 C 94.335938 -56.597656 104.132812 -52 115.59375 -52 C 124.132812 -52 132.070312 -53.53125 139.40625 -56.59375 C 146.738281 -59.664062 152.738281 -64.867188 157.40625 -72.203125 C 162.070312 -79.535156 164.40625 -89.332031 164.40625 -101.59375 L 164.40625 -202 L 220.796875 -202 L 220.796875 0 L 164.40625 0 L 164.40625 -14.40625 C 158.53125 -8 150.0625 -3.257812 139 -0.1875 C 127.9375 2.875 117.601562 4.40625 108 4.40625 C 90.394531 4.40625 74.726562 -0.191406 61 -9.390625 C 47.269531 -18.597656 36.535156 -30.867188 28.796875 -46.203125 C 21.066406 -61.535156 17.203125 -78.398438 17.203125 -96.796875 Z M 17.203125 -96.796875 "/></g></g></g><g fill="#1e1e1e" fill-opacity="1"><g transform="translate(519.994777, 848.999907)"><g><path d="M 48 -237.59375 C 39.195312 -237.59375 31.53125 -240.789062 25 -247.1875 C 18.46875 -253.59375 15.203125 -261.195312 15.203125 -270 C 15.203125 -278 18.46875 -285.195312 25 -291.59375 C 31.53125 -298 39.195312 -301.203125 48 -301.203125 C 57.601562 -301.203125 65.671875 -298.066406 72.203125 -291.796875 C 78.734375 -285.535156 82 -278.269531 82 -270 C 82 -261.195312 78.734375 -253.59375 72.203125 -247.1875 C 65.671875 -240.789062 57.601562 -237.59375 48 -237.59375 Z M 76.796875 -202 L 76.796875 0 L 20 0 L 20 -202 Z M 76.796875 -202 "/></g></g></g><g fill="#1e1e1e" fill-opacity="1"><g transform="translate(596.794011, 848.999907)"><g><path d="M 108.796875 -104.796875 L 152 -202 L 207.203125 -202 L 106.796875 5.203125 L -2.40625 -202 L 60.40625 -202 Z M 108.796875 -104.796875 "/></g></g></g><g fill="#1e1e1e" fill-opacity="1"><g transform="translate(781.592412, 848.999907)"><g><path d="M 164.796875 -72.40625 L 210 -37.59375 C 201.46875 -24.800781 189.066406 -14.601562 172.796875 -7 C 156.535156 0.601562 139.335938 4.40625 121.203125 4.40625 C 106.003906 4.40625 91.800781 1.671875 78.59375 -3.796875 C 65.394531 -9.265625 53.726562 -16.863281 43.59375 -26.59375 C 33.46875 -36.332031 25.601562 -47.535156 20 -60.203125 C 14.394531 -72.867188 11.59375 -86.398438 11.59375 -100.796875 C 11.59375 -120.265625 16.328125 -138 25.796875 -154 C 35.265625 -170 47.929688 -182.734375 63.796875 -192.203125 C 79.660156 -201.671875 97.195312 -206.40625 116.40625 -206.40625 C 133.195312 -206.40625 148.394531 -203.070312 162 -196.40625 C 175.601562 -189.738281 187.203125 -181.003906 196.796875 -170.203125 C 206.398438 -159.398438 213.203125 -147.734375 217.203125 -135.203125 L 104.40625 -54.40625 C 107.070312 -53.332031 109.800781 -52.660156 112.59375 -52.390625 C 115.394531 -52.128906 118.265625 -52 121.203125 -52 C 129.734375 -52 138 -53.597656 146 -56.796875 C 154 -59.992188 160.265625 -65.195312 164.796875 -72.40625 Z M 69.203125 -100.796875 C 69.203125 -95.460938 69.734375 -91.0625 70.796875 -87.59375 L 144.40625 -140 C 140.40625 -142.9375 136.070312 -145.269531 131.40625 -147 C 126.738281 -148.726562 121.738281 -149.59375 116.40625 -149.59375 C 103.332031 -149.59375 92.195312 -144.992188 83 -135.796875 C 73.800781 -126.597656 69.203125 -114.929688 69.203125 -100.796875 Z M 69.203125 -100.796875 "/></g></g></g><g fill="#1e1e1e" fill-opacity="1"><g transform="translate(990.390624, 848.999907)"><g><path d="M 135.59375 -205.59375 L 135.59375 -146.796875 C 130.257812 -148.660156 124.257812 -149.59375 117.59375 -149.59375 C 106.664062 -149.59375 97.132812 -145.523438 89 -137.390625 C 80.863281 -129.265625 76.796875 -117.066406 76.796875 -100.796875 L 76.796875 0 L 20 0 L 20 -202 L 76.796875 -202 L 76.796875 -188 C 82.929688 -194.664062 90 -199.398438 98 -202.203125 C 106 -205.003906 113.863281 -206.40625 121.59375 -206.40625 C 124 -206.40625 126.265625 -206.40625 128.390625 -206.40625 C 130.523438 -206.40625 132.925781 -206.132812 135.59375 -205.59375 Z M 135.59375 -205.59375 "/></g></g></g><g fill="#1e1e1e" fill-opacity="1"><g transform="translate(1111.189595, 848.999907)"><g><path d="M 20 -298 L 76.796875 -298 L 76.796875 0 L 20 0 Z M 20 -298 "/></g></g></g><g fill="#1e1e1e" fill-opacity="1"><g transform="translate(1187.988783, 848.999907)"><g><path d="M 88.40625 -19.203125 L -2.40625 -202 L 60 -202 L 118.40625 -76.796875 L 175.59375 -202 L 232 -202 L 93.203125 96.40625 L 34.40625 96.40625 Z M 88.40625 -19.203125 "/></g></g></g></svg>