<?xml version="1.0" encoding="UTF-8"?>
<svg xmlns="http://www.w3.org/2000/svg" width="118" height="52" viewBox="0 0 4525 1999" role="img" aria-label="koel">
<path fill="#262626" d="M242.4 1732.4V242.4H642.4V1020.4H646.4L914.4 676.4H1366.4L994.4 1140.4L1378.4 1732.4H924.4L700.4 1367.4L642.4 1439.4V1732.4Z"/>
<path fill="#262626" d="M1980.4 1756.4Q1809.4 1756.4 1679.4 1688.9Q1549.4 1621.4 1476.9 1497.4Q1404.4 1373.4 1404.4 1204.4Q1404.4 1035.4 1476.9 911.9Q1549.4 788.4 1679.4 720.4Q1809.4 652.4 1980.4 652.4Q2152.4 652.4 2281.9 720.4Q2411.4 788.4 2483.9 911.9Q2556.4 1035.4 2556.4 1204.4Q2556.4 1373.4 2483.9 1497.4Q2411.4 1621.4 2281.9 1688.9Q2152.4 1756.4 1980.4 1756.4ZM1980.4 1444.4Q2051.4 1444.4 2101.9 1383.9Q2152.4 1323.4 2152.4 1204.4Q2152.4 1085.4 2101.9 1024.9Q2051.4 964.4 1980.4 964.4Q1909.4 964.4 1858.9 1024.9Q1808.4 1085.4 1808.4 1204.4Q1808.4 1323.4 1858.9 1383.9Q1909.4 1444.4 1980.4 1444.4Z"/>
<path fill="#262626" d="M3209.4 1756.4Q3045.4 1756.4 2918.4 1685.9Q2791.4 1615.4 2719.9 1490.4Q2648.4 1365.4 2648.4 1204.4Q2648.4 1042.4 2719.4 917.9Q2790.4 793.4 2914.9 722.9Q3039.4 652.4 3201.4 652.4Q3363.4 652.4 3488.4 721.4Q3613.4 790.4 3683.9 912.4Q3754.4 1034.4 3754.4 1193.4V1300.4H3036.4Q3038.4 1384.4 3088.4 1431.4Q3138.4 1478.4 3225.4 1478.4Q3289.4 1478.4 3334.9 1454.4Q3380.4 1430.4 3396.4 1387.4H3750.4Q3731.4 1495.4 3655.4 1578.4Q3579.4 1661.4 3463.9 1708.9Q3348.4 1756.4 3209.4 1756.4ZM3039.4 1076.4H3385.4Q3375.4 1011.4 3330.4 974.9Q3285.4 938.4 3212.4 938.4Q3139.4 938.4 3094.4 974.9Q3049.4 1011.4 3039.4 1076.4Z"/>
<path fill="#262626" d="M4282.4 242.4V1732.4H3882.4V242.4Z"/>
</svg>
