<?xml version="1.0" encoding="UTF-8"?>
<svg xmlns="http://www.w3.org/2000/svg" width="147" height="64" viewBox="0.0 0.0 475.0 206.871" role="img" aria-label="koel">
<g transform="translate(-14.000000,221.000000) scale(0.100000,-0.100000)"
fill="#111111" stroke="none">
<path d="M140 1190 l0 -1020 195 0 195 0 1 193 1 192 54 49 53 48 247 -241
248 -241 250 0 250 0 -69 73 c-38 39 -202 205 -363 368 l-294 296 64 60 c35
33 190 178 346 322 155 144 282 264 282 266 0 3 -109 5 -242 5 l-243 -1 -285
-269 c-157 -148 -288 -269 -292 -269 -5 -1 -8 267 -8 594 l0 595 -195 0 -195
0 0 -1020z M4500 1190 l0 -1020 195 0 195 0 0 1020 0 1020 -195 0 -195 0 0
-1020z M2175 1581 c-85 -14 -137 -31 -220 -71 -378 -182 -517 -648 -303 -1015
62 -105 185 -221 289 -273 182 -89 371 -105 548 -45 232 78 402 249 478 483
23 72 27 102 27 195 0 134 -17 206 -81 335 -39 80 -60 109 -133 181 -70 70
-103 94 -180 132 -140 69 -300 98 -425 78z m233 -421 c155 -67 230 -277 157
-438 -44 -97 -110 -151 -217 -178 -79 -20 -149 -12 -227 27 -109 54 -165 152
-166 289 0 92 10 128 57 197 82 122 251 166 396 103z M3606 1575 c-284 -54
-505 -266 -577 -555 -18 -74 -16 -239 5 -320 55 -222 224 -414 438 -499 216
-87 455 -78 658 24 120 60 255 181 234 210 -5 8 -74 64 -154 125 l-144 110
-41 -39 c-22 -21 -57 -48 -78 -59 -58 -30 -163 -46 -232 -36 l-58 9 381 274
c210 150 382 278 382 284 0 6 -16 42 -35 81 -139 283 -470 448 -779 391z m257
-415 c26 -12 46 -26 45 -31 -2 -4 -111 -85 -243 -179 l-240 -170 -6 43 c-24
159 79 314 236 358 52 14 156 4 208 -21z"/>
</g>
</svg>
