<?xml version="1.0" encoding="UTF-8"?>
<svg xmlns="http://www.w3.org/2000/svg" width="119" height="52" viewBox="0.0 0.0 475.0 206.842355" role="img" aria-label="koel">
<g transform="translate(-28.000000,235.000000) scale(0.100000,-0.100000)"
fill="#1A1A1A" stroke="none">
<path d="M280 1330 l0 -1020 195 0 195 0 0 188 0 188 55 54 54 53 246 -241
245 -242 252 0 252 0 -35 38 c-18 20 -179 184 -356 363 -178 180 -323 331
-323 337 0 6 152 151 338 323 185 172 339 316 340 321 2 4 -106 8 -240 8
l-243 -1 -290 -271 -290 -271 -3 596 -2 597 -195 0 -195 0 0 -1020z M4640
1330 l0 -1020 195 0 195 0 0 1020 0 1020 -195 0 -195 0 0 -1020z M2308 1720
c-283 -51 -498 -233 -586 -497 -23 -69 -26 -93 -26 -218 0 -123 4 -149 26
-217 41 -122 92 -204 187 -298 101 -101 202 -157 346 -191 203 -48 438 7 607
142 246 197 336 507 233 802 -38 107 -80 172 -175 267 -96 97 -193 154 -320
190 -85 23 -223 33 -292 20z m235 -418 c61 -27 123 -86 155 -146 24 -46 27
-61 27 -156 0 -90 -3 -111 -23 -148 -61 -115 -163 -176 -292 -176 -94 0 -159
27 -223 92 -57 58 -86 122 -94 205 -14 154 84 304 224 343 62 18 169 11 226
-14z M3727 1711 c-335 -73 -571 -361 -571 -696 0 -132 16 -200 74 -320 79
-164 207 -284 380 -355 229 -95 509 -73 721 56 63 38 179 147 179 168 0 7 -68
65 -151 130 l-151 116 -50 -44 c-69 -63 -142 -89 -250 -90 -77 0 -111 6 -97
18 2 2 172 124 377 271 427 306 393 263 319 395 -148 266 -482 416 -780 351z
m276 -411 c26 -12 47 -25 47 -29 0 -3 -109 -83 -243 -178 l-242 -172 -3 76
c-4 110 16 163 92 239 48 47 73 64 116 77 73 22 170 17 233 -13z"/>
</g>
</svg>
