<?xml version="1.0" encoding="UTF-8"?>
<svg xmlns="http://www.w3.org/2000/svg" width="128" height="128" viewBox="-15.514 -13.76 199.52 199.52" role="img" aria-label="koel">
<g transform="translate(-10.000000,182.000000) scale(0.100000,-0.100000)"
fill="#111111" stroke="none">
<path d="M100 960 l0 -860 185 0 185 0 0 228 0 227 93 93 92 92 320 -320 320
-320 245 0 245 0 -435 435 -435 435 418 418 c229 229 417 420 417 425 0 4
-107 7 -237 7 l-238 0 -402 -402 -403 -403 0 403 0 402 -185 0 -185 0 0 -860z"/>
</g>
</svg>
